<svg xmlns="http://www.w3.org/2000/svg" viewBox="0 0 49 37" width="49" height="37" shape-rendering="crispEdges"><rect x="1" y="1" width="12" height="4" fill="#5c1505"/><rect x="1" y="5" width="20" height="4" fill="#5c1505"/><rect x="1" y="9" width="28" height="4" fill="#5c1505"/><rect x="1" y="13" width="36" height="4" fill="#5c1505"/><rect x="1" y="17" width="44" height="4" fill="#5c1505"/><rect x="1" y="21" width="36" height="4" fill="#5c1505"/><rect x="1" y="25" width="28" height="4" fill="#5c1505"/><rect x="1" y="29" width="20" height="4" fill="#5c1505"/><rect x="1" y="33" width="12" height="4" fill="#5c1505"/><rect x="0" y="0" width="12" height="4" fill="#fff2b0"/><rect x="0" y="4" width="20" height="4" fill="#fff2b0"/><rect x="0" y="8" width="28" height="4" fill="#ffd23f"/><rect x="0" y="12" width="36" height="4" fill="#ffd23f"/><rect x="0" y="16" width="44" height="4" fill="#ffb020"/><rect x="0" y="20" width="36" height="4" fill="#ffb020"/><rect x="0" y="24" width="28" height="4" fill="#ff8a2b"/><rect x="0" y="28" width="20" height="4" fill="#ff8a2b"/><rect x="0" y="32" width="12" height="4" fill="#ff5a1f"/></svg>
